<?xml version="1.0" encoding="UTF-8"?>
<svg id="Camada_1" xmlns="http://www.w3.org/2000/svg" version="1.1" viewBox="0 0 1920 1080">
  <!-- Generator: Adobe Illustrator 29.2.1, SVG Export Plug-In . SVG Version: 2.1.0 Build 116)  -->
  <defs>
    <style>
      .st0 {
        fill: #fff;
        stroke: #fff;
        stroke-miterlimit: 10;
      }
    </style>
  </defs>
  <g>
    <path class="st0" d="M1088.65,823.72c-55.56,0-105.16-12.8-148.8-38.42-43.66-25.61-78.11-60.59-103.36-104.97s-37.88-95.06-37.88-152.06,12.62-107.66,37.88-152.03,59.7-79.36,103.36-104.98c43.64-25.61,93.23-38.42,148.8-38.42s104.06,12.81,147.72,38.42c43.66,25.62,78.11,60.61,103.36,104.98s37.88,95.05,37.88,152.03-12.62,107.69-37.88,152.06-59.7,79.36-103.36,104.97c-43.66,25.62-92.89,38.42-147.72,38.42ZM1088.65,721.99c33.91,0,64.22-8.47,90.91-25.42s47.61-40.05,62.77-69.27,22.38-62.22,21.66-99.03c.72-37.5-6.5-70.88-21.66-100.09s-36.08-52.12-62.77-68.72-57-24.89-90.91-24.89-64.39,8.48-91.44,25.44c-27.06,16.95-48.16,40.03-63.31,69.25s-22.36,62.23-21.64,99.02c-.72,36.81,6.48,69.81,21.64,99.03s36.25,52.31,63.31,69.27c27.05,16.95,57.53,25.42,91.44,25.42Z"/>
    <path class="st0" d="M1464.17,812.89v-93.06l293.28-391.77v12.98h-293.28v-96.31h414.48v90.91l-288.95,386.34-4.33-5.41h299.78v96.31h-420.98Z"/>
  </g>
  <g>
    <path class="st0" d="M334.78,393.09c0,49.66-24.16,93.69-61.36,121.02l-143.1,18.75c-55.86-21.83-95.48-76.15-95.48-139.76,0-82.82,67.15-149.97,149.97-149.97,82.82,0,149.97,67.15,149.97,149.97Z"/>
    <path class="st0" d="M481.17,489.45l-1.17,1.17c-28.08,2.33-53.2,4.08-80.69,7l-19.58,2.58c-27.74-27.24-44.95-65.15-44.95-107.1,0-15.16,2.25-29.79,6.46-43.57l139.93,139.93Z"/>
    <path class="st0" d="M634.72,393.09c0,45.74-20.45,86.65-52.74,114.18l-211.37-211.42c27.49-32.29,68.4-52.74,114.14-52.74,82.82,0,149.97,67.15,149.97,149.97Z"/>
    <path class="st0" d="M634.72,697.2c0,82.82-67.15,149.97-149.97,149.97-82.82,0-149.97-67.15-149.97-149.97,0-62.74,38.58-116.52,93.27-138.85l75.73-9.91h.04c73.82,9.37,130.89,72.4,130.89,148.76Z"/>
    <path class="st0" d="M300.95,792.05c-27.49,33.62-69.32,55.11-116.14,55.11-82.82,0-149.97-67.15-149.97-149.97,0-46.82,21.5-88.65,55.11-116.14l211,211Z"/>
    <path class="st0" d="M334.78,697.2c0,14.25-2,28.08-5.71,41.12l-148.93-148.93,1.17-1.17c27.45-1.75,53.2-4.08,80.65-8.16l14.12-1.83c35.7,27.37,58.7,70.49,58.7,118.98Z"/>
  </g>
</svg>